<?xml version="1.0" encoding="utf-8"?>
<!-- Generator: Adobe Illustrator 19.0.0, SVG Export Plug-In . SVG Version: 6.00 Build 0)  -->
<svg version="1.1" id="layer" xmlns="http://www.w3.org/2000/svg" xmlns:xlink="http://www.w3.org/1999/xlink" x="0px" y="0px"
	 viewBox="-153 -46 652 652" style="enable-background:new -153 -46 652 652;" xml:space="preserve">
<style type="text/css">
	.st0{fill:#555D5E;}
</style>
<path class="st0" d="M463.8,339.4h1.2l1,4.5l1-4.5h1.1v6.8h-0.8v-5.4l-1.2,5.4h-0.5l-1.1-5.4v5.4h-0.8v-6.8 M459.5,339.4h3.5v1.1
	h-1.2v5.7h-1v-5.7h-1.2v-1.1H459.5z M439.6,338.5l15.8,17v-16.1h2.4v22.3l-15.8-16.9v16h-2.4V338.5z M429.4,356.3
	c1.7-1.7,2.6-3.8,2.6-6.2s-0.9-4.5-2.6-6.2c-1.7-1.7-3.9-2.6-6.3-2.6c-2.4,0-4.6,0.9-6.3,2.6c-1.7,1.7-2.6,3.8-2.6,6.2
	s0.9,4.5,2.6,6.2c1.7,1.7,3.9,2.5,6.3,2.5C425.5,358.9,427.7,358,429.4,356.3 M431.4,358c-2.2,2.1-5.2,3.3-8.2,3.3
	c-3,0-6-1.1-8.2-3.3c-2.2-2.1-3.5-4.8-3.5-7.9c0-3.1,1.1-5.8,3.5-7.9c2.2-2.1,5.2-3.3,8.2-3.3c3,0,6,1.1,8.2,3.3
	c2.2,2.1,3.3,5,3.3,7.9C434.7,353,433.6,356,431.4,358 M402,341.8h-6.2v-2.4h15v2.4h-6v19h-2.6v-19H402z M380.9,339.4h2.6v9.5
	l9.1-9.5h3l-9.4,9.6l10.2,11.8h-3.3l-9.6-11.6v11.5h-2.6V339.4z M356.8,338.5l15.8,17v-16.1h2.4v22.3l-15.8-16.9v16h-2.4V338.5z
	 M340.6,352h6.9l-3.5-7.8L340.6,352z M353.9,360.7h-2.7l-2.9-6.5h-8.5l-2.9,6.5h-2.7l9.8-22.3L353.9,360.7z M322.7,339.4h2.6v19h8.2
	v2.4h-10.8V339.4z M310.6,348.9c3.7,0,5.6-0.4,5.6-3.4c0-3.1-1.9-3.7-5.6-3.7h-1.3v7.1H310.6z M309.3,360.7h-2.4v-21.4h4.6
	c2.2,0,4,0,5.5,1.1c1.3,1,2.2,2.7,2.2,4.8c0,2.1-0.9,3.8-2.2,4.8c-1.4,1-3.2,1.1-5.5,1.1h-2v9.5H309.3z M280.8,339.4h11.4v2.3h-8.9
	v6.1h8.9v2.4h-8.9v8.2h8.9v2.4h-11.4V339.4z M264.8,339.4h11.4v2.3h-8.9v6.1h8.9v2.4h-8.9v10.5h-2.6v-21.3H264.8z M256.3,339.4h2.6
	v21.4h-2.6V339.4z M241.9,339.4h2.6v19h8.2v2.4h-10.8V339.4z M216.3,339.4h11.4v2.3h-8.9v6.1h8.9v2.4h-8.9v10.5h-2.6v-21.3H216.3z
	 M206.2,356.3c1.7-1.7,2.6-3.8,2.6-6.2s-0.9-4.5-2.6-6.2c-1.7-1.7-3.9-2.6-6.3-2.6c-2.4,0-4.6,0.9-6.3,2.6c-1.7,1.7-2.6,3.8-2.6,6.2
	s0.9,4.5,2.6,6.2c1.7,1.7,3.9,2.5,6.3,2.5C202.4,358.9,204.5,358,206.2,356.3 M208.1,358c-2.2,2.1-5.2,3.3-8.2,3.3
	c-3,0-6.1-1.1-8.2-3.3c-2.2-2.1-3.5-4.8-3.5-7.9c0-3.1,1.1-5.8,3.5-7.9c2.2-2.1,5.2-3.3,8.2-3.3c3,0,6,1.1,8.2,3.3
	c2.2,2.1,3.3,5,3.3,7.9C211.4,353,210.3,356,208.1,358 M165.5,348.6h2c3.5,0,5-0.4,5-3.4c0-3.1-1.6-3.7-5-3.7h-2V348.6z
	 M162.9,339.4h5.2c2,0,3.6,0,5,1.1c1.3,1,2,2.7,2,4.7c0,3.5-2,5.4-5.9,5.4h-0.4l8.3,10.2h-3.3l-7.9-10.2h-0.4v10.2H163v-21.4H162.9z
	 M146.5,339.4h11.4v2.3h-8.9v6.1h8.9v2.4h-8.9v8.2h8.9v2.4h-11.4V339.4z M118.3,339.4l5.5,15.7l5.8-16.6l5.8,16.6l5.5-15.7h2.7
	l-8.4,22.3l-5.6-16.6l-5.6,16.6l-8.3-22.3H118.3z M108.1,356.3c1.7-1.7,2.6-3.8,2.6-6.2s-0.9-4.5-2.6-6.2c-1.7-1.7-3.9-2.6-6.3-2.6
	c-2.4,0-4.6,0.9-6.3,2.6c-1.7,1.7-2.6,3.8-2.6,6.2s0.9,4.5,2.6,6.2c1.7,1.7,3.9,2.5,6.3,2.5C104.2,358.9,106.3,358,108.1,356.3
	 M110.1,358c-2.2,2.1-5.2,3.3-8.2,3.3c-3,0-6-1.1-8.2-3.3c-2.2-2.1-3.5-4.8-3.5-7.9c0-3.1,1.1-5.8,3.5-7.9c2.2-2.1,5.2-3.3,8.2-3.3
	c3,0,6,1.1,8.2,3.3c2.2,2.1,3.3,5,3.3,7.9C113.4,353,112.2,356,110.1,358 M79.1,348.9c3.7,0,5.6-0.4,5.6-3.4c0-3.1-1.9-3.7-5.6-3.7
	h-1.3v7.1H79.1z M77.7,360.7h-2.4v-21.4h4.6c2.2,0,4,0,5.5,1.1c1.3,1,2.2,2.7,2.2,4.8c0,2.1-0.9,3.8-2.2,4.8c-1.4,1-3.2,1.1-5.5,1.1
	h-2v9.5H77.7z M61.2,349.7v0.7c0,6.8-4.2,10.9-10.8,10.9c-2.2,0-4-0.4-5.5-1.3c-3.6-1.8-5.6-5.4-5.6-9.8c0-3.5,1.2-6.4,3.5-8.6
	c2-1.8,4.6-2.8,7.8-2.8c4.2,0,7.2,1.4,9.2,4.5l-2.2,1.7c-1.6-2.6-3.9-3.8-6.9-3.8c-5,0-8.5,3.7-8.5,9.1c0,5.1,3.6,8.8,8.5,8.8
	c4.3,0,7.5-2.8,7.8-7.1h-6.2v-2.3H61.2z M16.2,338.5l15.8,17v-16.1h2.4v22.3l-15.8-16.9v16h-2.4V338.5z M7.8,339.4h2.6v21.4H7.8
	V339.4z M-6.7,339.4h2.6v19h8.2v2.4H-6.7V339.4z M-22.8,352h6.9l-3.5-7.8L-22.8,352z M-9.6,360.7h-2.7l-2.9-6.5h-8.5l-2.9,6.5h-2.7
	l9.8-22.3L-9.6,360.7z M-42.7,339.4h11.5v2.3h-8.9v6.1h8.9v2.4h-8.9v8.2h8.9v2.4h-11.5V339.4z M-65.2,339.4h2.6v8.2H-51v-8.2h2.6
	v21.4H-51V350h-11.5v10.8h-2.6V339.4z M-91.1,339.4h11.4v2.3h-8.9v6.1h8.9v2.4h-8.9v8.2h8.9v2.4h-11.4V339.4z M-113.7,339.4h2.6v8.2
	h11.5v-8.2h2.6v21.4h-2.6V350h-11.5v10.8h-2.6V339.4z M-125.8,341.8h-6.2v-2.4h14.8v2.4h-6.1v19h-2.6V341.8z M348.9,301l20.6-110.5
	h2.9l29.1,68.2l1.4,3.8l2.6,6.8c0,0,2.3,6.1,2.9,7.8c1.6-4,6.6-17.3,6.6-17.3l30-69.3h2.6l19.7,110.7h-14.7l-9.2-57.1
	c0,0-1.7-12.2-1.9-13.7c-1,2.3-2.6,6.4-2.6,6.4l-28.7,66.7h-4.6l-26.5-62.5l-2.4-5.8c0,0-1-3-1.7-4.8c-0.7,4.5-2.6,16.3-2.6,16.3
	l-9.2,54.4H348.9z M320.4,236.6c1.7-1,7.4-4.8,7.4-13.9c0-4.1-0.9-6.9-2.6-9.8c-4.3-6.7-11.8-6.7-19-6.9h-10.7v33.4h6.8
	C310.8,239.3,316.4,238.8,320.4,236.6 M316.1,250.8v0.3h-0.3l30.1,50.3h-0.7l-16.3-0.3l-28.1-49h-5.5v49.2h-14.8V193.1H304l8.3,0.1
	c8.1,0.4,18.1,2.3,24.6,10.9c3.5,4.7,5.3,10.3,5.3,16.7v0.7c0,7.9-2.3,14.7-7,20.1c-1.3,1.4-3.2,3.4-7.1,5.5
	C323.7,249.5,318.4,250.4,316.1,250.8 M226.3,248.7v39.1h43.5v13.3h-58.3v-51.4h-52.7v51.4h-14.5V193h14.5v43.2h52.7v-42.8l0.2-0.4
	h57.7v13.6h-43v29.2h42.6v12.9H226.3z M69.2,193h68.5v13.3h-27.1v94.8H95.8v-94.8H69.2V193z M-6.7,213.8
	c-13.7,11.3-15.1,26.9-15.1,33.2c0,5.8,1.3,17.3,9.4,27.6c4.6,5.8,15.1,15.4,33.7,14.7c5-0.2,15-1.4,24.3-8.5
	c4.9-3.7,16.3-14.3,16.3-34.2c0-2.4,0-9.6-3.5-17.7c-6.3-15-21-24.2-38.5-24.2C5.1,204.8-3.4,211.3-6.7,213.8 M59,204.9
	c17.1,14.9,18.4,35.4,18.3,41.2c0,4.4-0.6,13.3-4.7,22.8c-8.9,20.6-29.1,33.6-52.7,33.9c-3.2,0-12.9,0-23.3-4.3
	c-20.9-8.4-33.7-28.1-33.7-51.6c0-7.7,1.6-22.5,12.7-36c6.2-7.4,20.2-19.8,44.8-19.8C35.5,191.1,48.6,195.7,59,204.9 M-60.5,193
	h14.8v108.1h-14.8V193z M-100.6,238.2c8.1-2.3,12.7-8.2,12.5-16.6c0-5.5-1.7-8.2-3.2-9.9c-4.6-5.8-12.1-5.8-18.7-5.8h-7.3v33.3h8.3
	L-100.6,238.2z M-117.3,251.8v36.4h9.4l5.3-0.3c6.1-0.4,11.7-1.3,15.8-6.5c2.3-3,3.5-6.4,3.5-10.8c0-4.5-1.3-8.5-3.6-11.5
	c-5.6-7.4-14.5-7.4-23.2-7.4H-117.3z M-79,248.5c3.6,2.8,9.8,9.4,9.8,22c0,8.6-3,14.6-5.5,18.3C-82.7,300-95.2,301-109.3,301H-132
	V192.9h23.2l6,0.1c15.3,0.9,21.2,6.4,24.6,11.2c1.9,2.4,4.9,7.5,4.9,15.4c0,3.8-0.9,13.5-9.1,20.7l-5.3,3.7
	C-84.7,245.3-81.7,246.6-79,248.5"/>
</svg>
